<svg width="39" height="35" viewBox="0 0 39 35" fill="none" xmlns="http://www.w3.org/2000/svg">
<path d="M13.1599 0.0454063C12.5255 0.176014 11.9924 0.437228 11.4753 0.869034C11.0035 1.26086 10.6917 1.66334 10.4118 2.24442C10.0013 3.08937 9.74544 4.04627 9.66548 5.03516C9.63616 5.43231 9.58285 5.70686 9.48689 5.9734C9.3243 6.4292 9.07375 6.82102 8.73523 7.15953C8.35407 7.5407 7.96225 7.78592 7.47447 7.94585C6.92272 8.13243 6.34164 8.16441 5.7739 8.0418C5.20082 7.91653 5.06222 7.9032 4.57444 7.91653C4.07866 7.93252 3.83877 7.9725 3.43895 8.10844C3.14575 8.20973 2.7486 8.4123 2.46872 8.60422C1.9223 8.97738 1.45318 9.64108 1.14132 10.4807C1.04803 10.7313 0.877438 11.5362 0.80014 12.0933C0.736169 12.5678 0.720176 13.7112 0.773485 14.2523C0.928082 15.8863 1.46651 17.4322 2.36743 18.8236C2.5087 19.0448 3.00981 19.7112 3.15108 19.8631C3.37498 20.1084 3.54024 20.2763 3.5589 20.2763C3.56956 20.2763 3.59355 20.3029 3.61221 20.3349C3.67618 20.4469 4.24392 20.9373 4.66773 21.2465C5.26746 21.6863 5.65928 22.1341 5.98714 22.7605C6.15506 23.0804 6.24036 23.3069 6.33365 23.6961C6.53622 24.5144 6.49624 25.2367 6.20037 26.1403C5.78456 27.4144 5.72859 28.6858 6.02712 29.9653C6.31765 31.21 7.02134 32.4441 7.94892 33.3371C8.56997 33.9341 9.00978 34.206 9.69213 34.4113C10.6357 34.6965 11.454 34.8564 12.5442 34.9683C12.968 35.011 14.7832 35.011 15.4096 34.9657C18.3629 34.7578 20.6978 34.3073 23.286 33.4437C24.2349 33.1292 24.8666 32.8839 25.9995 32.3935C27.015 31.9564 27.7533 31.5166 28.4224 30.9568C28.545 30.8555 28.6356 30.7622 28.6276 30.7489C28.6196 30.7356 28.6303 30.7302 28.6489 30.7382C28.6809 30.7516 29.2513 30.1998 29.4752 29.9386C29.9177 29.4242 30.4215 28.6645 30.656 28.1527C31.0132 27.3771 31.1198 26.6734 31.0425 25.6472C30.9999 25.0955 31.0319 24.685 31.1491 24.2105C31.2424 23.8267 31.3224 23.6188 31.5116 23.2483C31.8315 22.6219 32.3353 22.0622 32.9403 21.657C33.1242 21.5344 33.2389 21.4731 33.9212 21.1452C34.4117 20.9107 34.7262 20.7268 35.1793 20.4122C35.8697 19.9324 36.624 19.2128 37.1411 18.5384C37.1891 18.4744 37.2557 18.3865 37.2904 18.3438C37.405 18.1946 37.5889 17.9174 37.7302 17.6855C38.5431 16.3287 38.6711 14.5269 38.066 12.9809C37.7675 12.2239 37.3703 11.6189 36.7893 11.0405C36.4854 10.7366 36.3815 10.6486 36.0269 10.4007C35.4885 10.0222 34.7262 9.69439 33.9745 9.52114C33.3695 9.38253 33.1856 9.36387 32.2953 9.35854C31.7702 9.35588 31.3917 9.34255 31.2824 9.32123C30.7227 9.21727 30.1283 8.81745 29.8217 8.33767C29.6938 8.13776 29.5792 7.87921 29.4352 7.46873C29.1127 6.53848 28.9555 5.88811 28.8169 4.91521C28.7022 4.11024 28.6089 3.76106 28.3504 3.19065C27.9133 2.21776 27.1483 1.35948 26.2314 0.805061C25.7249 0.498533 25.3944 0.391915 24.896 0.373257C24.3549 0.351933 24.0457 0.423902 23.4886 0.701111C22.9795 0.956996 22.6223 1.21288 22.0999 1.69266C21.6841 2.07649 21.3029 2.30306 20.7805 2.47898C20.354 2.62291 20.0315 2.66822 19.517 2.64957C18.9173 2.63091 18.4535 2.50829 17.9604 2.23908C17.5792 2.03384 17.4193 1.9059 16.9422 1.43145C16.2705 0.762414 15.4949 0.306621 14.6366 0.0827217C14.4073 0.021416 14.3034 0.0107544 13.8902 0.00275803C13.4931 -0.00523837 13.3678 0.00275889 13.1599 0.0454063ZM14.9698 2.84414C15.7934 3.08937 16.7183 3.83037 17.2061 4.64333C17.7232 5.49895 18.0937 6.61578 18.2536 7.80191C18.2989 8.14309 18.2989 9.3079 18.2509 9.66774C18.1497 10.4727 18.0084 10.9845 17.7418 11.5202C17.3687 12.2746 16.729 12.9596 16.1532 13.2288C15.804 13.3914 15.5881 13.4367 15.1697 13.4394C14.7272 13.4394 14.53 13.3941 14.0955 13.1862C13.3785 12.845 12.7334 12.2639 12.3123 11.5842C11.8272 10.8032 11.4274 9.62776 11.2781 8.54558C11.2194 8.11377 11.1981 7.25016 11.2354 6.81569C11.366 5.32036 11.7499 4.39278 12.5868 3.55316C13.0186 3.11869 13.4398 2.88413 13.9835 2.78017C14.0209 2.77484 14.2128 2.77218 14.41 2.77751C14.6846 2.78284 14.8178 2.79883 14.9698 2.84414ZM24.6614 2.92677C25.1785 3.02006 25.549 3.21997 25.9888 3.64378C26.6392 4.27017 27.0497 5.02183 27.2416 5.93608C27.3668 6.52515 27.4015 6.88766 27.4015 7.602C27.4015 8.31901 27.3695 8.65486 27.2416 9.28658C27.0656 10.1608 26.6845 11.1391 26.2793 11.7708C25.6796 12.6984 24.6854 13.418 23.8058 13.562C23.5419 13.6046 23.0914 13.578 22.8462 13.5087C22.3318 13.3567 21.9799 13.1089 21.4335 12.5091C21.2016 12.2586 20.8924 11.7388 20.7272 11.3257C20.4446 10.6246 20.306 9.65708 20.3353 8.62821C20.354 8.05513 20.3753 7.82857 20.4606 7.38876C20.6845 6.22395 21.0683 5.26705 21.6601 4.41677C21.772 4.25418 22.1372 3.88634 22.3744 3.69176C22.7129 3.41189 23.1927 3.13734 23.5392 3.0174C23.8698 2.90545 24.3335 2.86813 24.6614 2.92677ZM7.35186 10.1608C8.88716 10.3927 10.1186 11.2857 10.9182 12.7464C11.2808 13.4127 11.4967 14.0977 11.5873 14.8761C11.6326 15.2732 11.6033 16.1422 11.5313 16.478C11.2861 17.6295 10.6171 18.6664 9.75078 19.2448C9.39627 19.482 8.82319 19.7192 8.42604 19.7965C7.61574 19.9484 6.70148 19.8232 5.87519 19.442C4.55045 18.8316 3.4736 17.4669 3.08178 15.8969C2.56468 13.8152 3.20439 11.8454 4.75569 10.7526C5.19016 10.4461 5.80322 10.2248 6.45359 10.1395C6.65084 10.1129 7.11463 10.1235 7.35186 10.1608ZM32.1487 11.0138C32.879 11.1311 33.588 11.4803 34.1185 11.984C34.5529 12.3998 34.9634 13.0289 35.2033 13.6526C35.2753 13.8365 35.4006 14.327 35.4432 14.5855C35.4965 14.9027 35.4885 15.793 35.4325 16.1581C35.2566 17.2723 34.8168 18.2345 34.1158 19.0528C33.3988 19.8871 32.5458 20.3989 31.4877 20.6281C31.1145 20.7081 30.3175 20.7134 29.9763 20.6388C29.1954 20.4682 28.6329 20.1643 28.0839 19.6126C27.4361 18.9596 27.063 18.2505 26.8551 17.2776C26.7964 17.0138 26.7911 16.9178 26.7911 16.3314C26.7938 15.6384 26.8124 15.4705 26.9537 14.908C27.2815 13.6073 28.0892 12.4345 29.1474 11.7201C29.6858 11.3576 30.3308 11.1178 31.0958 10.9925C31.2664 10.9632 31.9301 10.9765 32.1487 11.0138ZM19.9542 14.8414C20.9111 14.956 21.828 15.3132 22.4997 15.8383C22.7902 16.0675 23.1021 16.3954 23.5232 16.9231C23.7205 17.1684 23.8911 17.3629 23.9044 17.3549C23.9177 17.3469 23.9231 17.3523 23.9204 17.3656C23.9151 17.3869 24.2189 17.7894 24.3362 17.912C24.3522 17.9307 24.3975 17.9867 24.4375 18.0426C24.4775 18.0959 24.5281 18.1546 24.5468 18.1759C24.5681 18.1946 24.6774 18.3252 24.7947 18.4638C24.9093 18.6024 25.0292 18.7463 25.0612 18.7836C25.0932 18.8209 25.2318 18.9809 25.3677 19.1435C25.5037 19.3034 25.6236 19.442 25.6316 19.45C25.6396 19.458 25.7089 19.5406 25.7889 19.6366C25.8662 19.7325 26.0021 19.8898 26.0874 19.9858C26.1754 20.0844 26.2713 20.199 26.3033 20.239C26.338 20.2816 26.378 20.3269 26.3939 20.3429C26.4206 20.3643 26.5432 20.5055 27.0177 21.0599C27.055 21.1026 27.103 21.1586 27.1243 21.1826C27.1456 21.2065 27.2549 21.3265 27.3642 21.4491C27.7187 21.8489 27.7453 21.8756 27.772 21.8569C27.788 21.8489 27.7907 21.8542 27.78 21.8702C27.772 21.8862 27.8839 22.0328 28.0332 22.2008C28.6783 22.9151 28.9981 23.6348 29.0674 24.5197C29.1447 25.5246 28.8515 26.4015 28.1052 27.4197C27.7747 27.8649 27.5081 28.1581 27.111 28.5073C26.4153 29.115 25.9435 29.4055 24.88 29.8826C24.6641 29.9786 24.4801 30.0586 24.4721 30.0586C24.4641 30.0586 24.4082 30.0825 24.3442 30.1119C23.8937 30.3224 22.4597 30.8262 21.6468 31.0581C18.6268 31.9244 15.1244 32.2496 12.904 31.8711C12.0937 31.7325 11.2035 31.4792 10.8676 31.2927C10.3132 30.9861 9.63349 30.3091 9.20435 29.6427C8.76189 28.9497 8.45269 28.1048 8.34607 27.2998C8.29543 26.9106 8.29543 26.135 8.34607 25.7805C8.43937 25.1248 8.61795 24.533 8.88983 23.9786C9.47357 22.7898 10.3638 21.9022 11.6246 21.2519C12.2723 20.9187 12.5975 20.6095 13.1199 19.8338C13.8209 18.797 14.6872 17.6295 15.3989 16.7632C15.4895 16.6539 15.5508 16.558 15.5402 16.5393C15.5295 16.5233 15.5322 16.518 15.5508 16.526C15.5668 16.5366 15.7374 16.3581 15.94 16.1182C16.4064 15.5744 16.5904 15.4278 17.0835 15.2279C17.9791 14.8601 18.976 14.7268 19.9542 14.8414Z" fill="#7F534B"/>
</svg>
